<?xml version="1.0" encoding="utf-8"?>
<!-- Generator: Adobe Illustrator 25.4.0, SVG Export Plug-In . SVG Version: 6.00 Build 0)  -->
<svg version="1.1" id="artwork" xmlns="http://www.w3.org/2000/svg" xmlns:xlink="http://www.w3.org/1999/xlink" x="0px" y="0px"
	 viewBox="0 0 1257 190" style="enable-background:new 0 0 1257 190;" xml:space="preserve">
<style type="text/css">
	.st0{fill:#0569FF;}
	.st1{fill:#074170;}
</style>
<path class="st0" d="M145.1,0H44.9C20.1,0,0,20.1,0,44.9v100.2C0,169.9,20.1,190,44.9,190h100.2c24.8,0,44.9-20.1,44.9-44.9V44.9
	C190,20.1,169.9,0,145.1,0z M159,154c-8.6-16.7-24.6-12.5-32.7-8.3c-0.7,0.4-1.4,0.7-2.1,1.1c0,0-0.1,0.1-0.2,0.1
	c-16.9,9-39.5,9.6-62.3-0.1c-19.1-8.2-34.8-22.3-45-38.6c5.2,3.8,10.8,7.2,16.7,10c24.1,11.3,48.3,10.5,65.4,0
	C74.5,99.5,54.2,75.1,38.6,55.4c-3-3.5-5.7-7.2-8-11.1c18.7,17.1,48.1,38.5,58.7,44.4C66.9,64.9,47.1,35.8,48,36.7
	c35.3,35.6,68,55.8,68,55.8c1.2,0.7,2.1,1.2,2.9,1.7c0.6-1.7,1.3-3.5,1.8-5.3c5.7-20.6-0.7-44.2-15.1-63.7
	c32.8,19.7,52.2,57.1,44.2,88.7c-0.2,0.7-0.4,1.5-0.6,2.2C165.6,136.3,161.1,158,159,154z"/>
<path class="st0" d="M641.7,55.2h-9.4c-1.2,0-1.8,0.6-1.8,1.9v89.9c0,1.2,0.6,1.8,1.8,1.8h9.4c1.2,0,1.9-0.6,1.9-1.8V57
	C643.6,55.8,643,55.2,641.7,55.2z M425.5,55.2h-9.4c-1.2,0-1.8,0.6-1.8,1.9v89.9c0,1.2,0.6,1.8,1.8,1.8h9.4c1.2,0,1.9-0.6,1.9-1.8
	V57C427.3,55.8,426.7,55.2,425.5,55.2z M605.1,55.2h-9.4c-1.2,0-1.8,0.6-1.8,1.9v61.6c0,6.2-1.4,11-4.2,14.6
	c-2.8,3.6-6.6,5.4-11.6,5.4c-4.8,0-8.5-1.6-11-4.7c-2.5-3.1-3.8-7.8-3.8-14V57c0-1.2-0.6-1.9-1.8-1.9H552c-1.2,0-1.8,0.6-1.8,1.9
	v65.9c0,9.1,2.2,15.9,6.6,20.4c4.4,4.5,10.3,6.8,17.7,6.8c8.5,0,14.7-3.2,18.5-9.6c0.2-0.2,0.5-0.4,0.6-0.4c0.2,0,0.3,0.2,0.3,0.6
	v6.3c0,1.2,0.6,1.8,1.8,1.8h9.4c1.2,0,1.8-0.6,1.8-1.8V57C606.9,55.8,606.3,55.2,605.1,55.2z M532.8,55.2h-14.1
	c-0.5,0-0.7-0.2-0.7-0.7V33.7c0-1.2-0.6-1.9-1.9-1.9h-9.2c-1.2,0-1.8,0.6-1.8,1.9v20.7c0,0.5-0.2,0.7-0.7,0.7h-7.2
	c-1.2,0-1.8,0.6-1.8,1.9v6.1c0,1.2,0.6,1.9,1.8,1.9h7.2c0.5,0,0.7,0.2,0.7,0.7v60.5c0,8.8,1.9,14.7,5.6,17.9
	c3.8,3.1,9.3,4.7,16.6,4.7h4.6c1.2,0,1.8-0.6,1.8-1.8v-8c0-1.2-0.6-1.8-1.8-1.8H530c-4.1,0.1-7.1-0.9-9.1-3.1c-2-2.2-3-6.1-3-11.7
	V65.7c0-0.5,0.2-0.7,0.7-0.7h14.1c1.2,0,1.8-0.6,1.8-1.9V57C534.6,55.8,534,55.2,532.8,55.2z M283.5,102.9c-3.3-2-7.4-4.1-12.5-6.3
	c-4.2-1.8-7.5-3.4-9.8-4.7c-2.3-1.3-4.3-3-5.9-5c-1.6-2-2.4-4.5-2.4-7.5c0-4.1,1.3-7.5,4-10.3c2.7-2.8,6.2-4.2,10.6-4.2
	s8,1.4,10.8,4.1c2.8,2.7,4.2,6.2,4.2,10.4v1.5c0,1,0.6,1.5,1.8,1.5h8.5c1.2,0,1.8-0.6,1.8-1.9v-0.6c0-7.8-2.5-14-7.4-18.7
	c-4.9-4.7-11.6-7-20-7c-8.3,0-14.8,2.3-19.7,6.8c-4.9,4.6-7.3,10.8-7.3,18.7c0,5.4,1.1,9.9,3.4,13.4c2.3,3.5,5,6.2,8.1,8.1
	c3.1,1.9,7.1,3.9,11.9,5.8c4.6,2,8,3.6,10.3,4.8c2.3,1.2,4.3,2.9,6,5.1c1.7,2.2,2.6,4.8,2.6,8c0,4.2-1.4,7.6-4.1,10.4
	c-2.7,2.7-6.3,4.1-10.7,4.1c-4.7,0-8.5-1.4-11.4-4.1c-2.9-2.7-4.3-6-4.3-10V124c0-1-0.6-1.5-1.8-1.5h-8.9c-1.2,0-1.8,0.6-1.8,1.8
	v1.3c0,7.3,2.6,13.1,7.7,17.5c5.1,4.4,11.9,6.6,20.4,6.6c8.6,0,15.5-2.3,20.5-6.8c5.1-4.6,7.6-10.7,7.6-18.3c0-5.3-1.2-9.7-3.7-13.3
	C289.7,107.6,286.8,104.9,283.5,102.9z M482.8,18h-2.6c-9.2,0-15.8,2.4-19.8,7.2c-3.9,4.8-5.9,12.6-5.9,23.3v5.9
	c0,0.5-0.2,0.7-0.7,0.7h-7.4c-1.2,0-1.8,0.6-1.8,1.9v6.1c0,1.2,0.6,1.9,1.8,1.9h7.4c0.5,0,0.7,0.2,0.7,0.7v81.2
	c0,1.2,0.6,1.8,1.9,1.8h9.2c1.2,0,1.8-0.6,1.8-1.8V65.7c0-0.5,0.2-0.7,0.7-0.7h14.2c1.2,0,1.8-0.6,1.8-1.9V57c0-1.2-0.6-1.9-1.8-1.9
	h-14.2c-0.5,0-0.7-0.2-0.7-0.7v-5.7c0-6.7,1-11.6,3-14.7c2-3.1,5.3-4.7,10-4.7h2.2c1.2,0,1.8-0.6,1.8-1.9l0.2-7.6
	C484.7,18.6,484.1,18,482.8,18z M420.9,19.3c-2.7,0-4.9,0.9-6.7,2.7c-1.7,1.8-2.6,4-2.6,6.8c0,2.8,0.9,5.2,2.6,7
	c1.7,1.8,3.9,2.8,6.7,2.8c2.6,0,4.7-0.9,6.4-2.8s2.5-4.2,2.5-7c0-2.7-0.8-5-2.5-6.8C425.6,20.2,423.5,19.3,420.9,19.3z M395.9,55.3
	l-8.9-0.2c-1.1,0-1.8,0.6-2,1.7L371.3,129c-0.1,0.2-0.2,0.4-0.4,0.4c-0.1,0-0.2-0.1-0.4-0.4l-13.7-72.1c-0.1-1.1-0.8-1.7-2-1.7h-8.3
	c-1.1,0-1.8,0.6-2,1.7l-13.5,72c-0.1,0.2-0.2,0.4-0.4,0.4c-0.1,0-0.2-0.1-0.4-0.4l-13.5-72c-0.1-1.1-0.8-1.7-2-1.7h-9.1
	c-1.1,0-1.7,0.6-1.7,1.7v0.4l19.6,89.9c0.2,1.1,0.9,1.7,2,1.7h9.1c1.2,0,1.9-0.6,2-1.7L350,79.4c0.1-0.4,0.2-0.6,0.4-0.6
	c0.1,0,0.2,0.2,0.4,0.6l13.7,67.7c0.2,1.1,0.9,1.7,2,1.7h9.4c1.2,0,1.9-0.6,2-1.7l19.6-89.7C397.8,56,397.2,55.3,395.9,55.3z
	 M637.1,19.3c-2.7,0-4.9,0.9-6.7,2.7c-1.7,1.8-2.6,4-2.6,6.8c0,2.8,0.9,5.2,2.6,7c1.7,1.8,3.9,2.8,6.7,2.8c2.6,0,4.7-0.9,6.4-2.8
	s2.5-4.2,2.5-7c0-2.7-0.8-5-2.5-6.8C641.8,20.2,639.7,19.3,637.1,19.3z M1026.1,53.7c-8.8,0-15.8,2.6-21,7.9
	c-5.2,5.2-7.9,12.1-7.9,20.4v40c0,8.5,2.6,15.4,7.9,20.5c5.2,5.2,12.2,7.8,21,7.8c8,0,14.5-2.1,19.5-6.4c5-4.3,8-10,9-17.3
	c0.1-0.6,0-1.1-0.4-1.5c-0.4-0.4-0.8-0.6-1.3-0.6l-9.2-0.4c-1,0-1.7,0.6-2,1.7c-0.9,3.8-2.7,6.9-5.5,9.3c-2.8,2.4-6.1,3.6-10.1,3.6
	c-4.7,0-8.5-1.6-11.4-4.9c-2.9-3.3-4.3-7.5-4.3-12.7v-13.5c0-0.5,0.2-0.7,0.7-0.7h42.2c1.2,0,1.8-0.6,1.8-1.8V82
	c0-8.4-2.6-15.2-7.9-20.4C1042.1,56.3,1035,53.7,1026.1,53.7z M1042.2,95.3c0,0.5-0.2,0.7-0.7,0.7h-30.3c-0.5,0-0.7-0.2-0.7-0.7
	V82.9c0-5.3,1.4-9.6,4.3-12.9c2.9-3.3,6.7-4.9,11.4-4.9c4.8,0,8.7,1.6,11.7,4.9c3,3.3,4.4,7.6,4.4,12.9V95.3z M1114.2,56.3
	c-2.2-1.4-4.9-2-8-2c-8.1,0-14,4.7-17.6,14.1c-0.2,0.2-0.5,0.4-0.6,0.4c-0.2,0-0.3-0.2-0.3-0.6V57c0-1.2-0.6-1.9-1.8-1.9h-9.4
	c-1.2,0-1.8,0.6-1.8,1.9v89.9c0,1.2,0.6,1.8,1.8,1.8h9.4c1.2,0,1.8-0.6,1.8-1.8V91.4c0-6.3,1.4-11.6,4.3-16
	c2.8-4.4,6.5-6.7,10.9-6.9c0.6-0.1,1.5-0.2,2.8-0.2c1.8,0,3.5,0.3,5,0.9c1.5,0.4,2.3,0,2.4-1.1l2-9.4
	C1115.4,57.6,1115,56.8,1114.2,56.3z M981,55.2h-14.1c-0.5,0-0.7-0.2-0.7-0.7V33.7c0-1.2-0.6-1.9-1.9-1.9h-9.2
	c-1.2,0-1.8,0.6-1.8,1.9v20.7c0,0.5-0.2,0.7-0.7,0.7h-7.2c-1.2,0-1.8,0.6-1.8,1.9v6.1c0,1.2,0.6,1.9,1.8,1.9h7.2
	c0.5,0,0.7,0.2,0.7,0.7v60.5c0,8.8,1.9,14.7,5.6,17.9c3.8,3.1,9.3,4.7,16.6,4.7h4.6c1.2,0,1.8-0.6,1.8-1.8v-8c0-1.2-0.6-1.8-1.8-1.8
	h-1.8c-4.1,0.1-7.1-0.9-9.1-3.1c-2-2.2-3-6.1-3-11.7V65.7c0-0.5,0.2-0.7,0.7-0.7H981c1.2,0,1.8-0.6,1.8-1.9V57
	C982.8,55.8,982.2,55.2,981,55.2z M781,56.3c-2.2-1.4-4.9-2-8-2c-8.1,0-14,4.7-17.6,14.1c-0.2,0.2-0.5,0.4-0.6,0.4
	c-0.2,0-0.3-0.2-0.3-0.6V57c0-1.2-0.6-1.9-1.8-1.9h-9.4c-1.2,0-1.8,0.6-1.8,1.9v89.9c0,1.2,0.6,1.8,1.8,1.8h9.4
	c1.2,0,1.8-0.6,1.8-1.8V91.4c0-6.3,1.4-11.6,4.3-16c2.8-4.4,6.5-6.7,10.9-6.9c0.6-0.1,1.5-0.2,2.8-0.2c1.8,0,3.5,0.3,5,0.9
	c1.5,0.4,2.3,0,2.4-1.1l2-9.4C782.2,57.6,781.9,56.8,781,56.3z M925.5,55.2h-9.4c-1.2,0-1.8,0.6-1.8,1.9v61.6c0,6.2-1.4,11-4.2,14.6
	c-2.8,3.6-6.6,5.4-11.6,5.4c-4.8,0-8.5-1.6-11-4.7c-2.5-3.1-3.8-7.8-3.8-14V57c0-1.2-0.6-1.9-1.8-1.9h-9.4c-1.2,0-1.8,0.6-1.8,1.9
	v65.9c0,9.1,2.2,15.9,6.6,20.4c4.4,4.5,10.3,6.8,17.7,6.8c8.5,0,14.7-3.2,18.5-9.6c0.2-0.2,0.5-0.4,0.6-0.4c0.2,0,0.3,0.2,0.3,0.6
	v6.3c0,1.2,0.6,1.8,1.8,1.8h9.4c1.2,0,1.8-0.6,1.8-1.8V57C927.4,55.8,926.7,55.2,925.5,55.2z M821.9,53.7c-8.8,0-15.8,2.6-21.1,7.9
	c-5.3,5.2-8,12.1-8,20.4v40c0,8.5,2.6,15.4,7.9,20.5c5.2,5.2,12.3,7.8,21.2,7.8s16-2.6,21.3-7.8c5.3-5.2,8-12,8-20.5V82
	c0-8.4-2.7-15.2-8-20.4C837.7,56.3,830.7,53.7,821.9,53.7z M838,121.2c0,5.2-1.5,9.4-4.5,12.7c-3,3.3-6.9,4.9-11.6,4.9
	c-4.7,0-8.5-1.6-11.5-4.9c-3-3.3-4.4-7.5-4.4-12.7V82.9c0-5.3,1.5-9.6,4.4-12.9c3-3.3,6.8-4.9,11.5-4.9c4.7,0,8.5,1.6,11.6,4.9
	c3,3.3,4.5,7.6,4.5,12.9V121.2z M1249.4,113.4l-18.7-11.3c-0.1-0.1-0.2-0.3-0.2-0.6c0-0.2,0.1-0.4,0.2-0.6l18.7-11.3
	c0.6-0.4,0.9-0.9,0.9-1.7c0-0.4-0.1-0.7-0.2-0.9l-2.4-4.4c-0.4-0.7-0.9-1.1-1.5-1.1c-0.2,0-0.6,0.1-1.1,0.4l-18.3,11.5
	c-0.1,0.1-0.3,0.1-0.6,0c-0.2-0.1-0.4-0.3-0.4-0.6v-22c0-1.2-0.6-1.8-1.8-1.8h-4.8c-1.2,0-1.8,0.6-1.8,1.8l0.2,22
	c0,0.6-0.3,0.8-0.9,0.6L1198.2,82c-1.1-0.7-2-0.5-2.6,0.7l-2.2,4.4c-0.2,0.5-0.3,1-0.3,1.5c0.1,0.5,0.3,0.9,0.8,1.1l18.9,11.3
	c0.2,0.1,0.4,0.3,0.4,0.6c0,0.2-0.1,0.4-0.4,0.6l-18.9,11.3c-0.6,0.2-0.9,0.7-0.9,1.5c0,0.2,0.1,0.6,0.4,1.1l2.2,4.1
	c0.5,0.7,1,1.1,1.7,1.1l0.9-0.4l18.5-11.3c0.6-0.4,0.9-0.2,0.9,0.6l-0.2,22.2c0,1.2,0.6,1.8,1.8,1.8h4.8c1.2,0,1.8-0.6,1.8-1.8
	v-22.2c0-0.2,0.1-0.4,0.4-0.6c0.2-0.1,0.4-0.1,0.6,0l18.3,11.7c0.5,0.2,1,0.3,1.5,0.2c0.5-0.1,0.9-0.4,1.1-0.9l2.4-4.4
	C1250.8,115,1250.5,114.2,1249.4,113.4z"/>
<path class="st1" d="M714.9,28.3h-9.2c-1.1,0-1.8,0.6-2,1.7l-33.5,125.8c-0.1,0.6,0,1.1,0.3,1.5c0.3,0.4,0.8,0.6,1.4,0.6h9.2
	c1.1,0,1.8-0.6,2-1.7l33.5-125.8c0.1-0.6,0-1.1-0.3-1.5C716,28.5,715.5,28.3,714.9,28.3z M1176.3,29.8c-0.3-0.4-0.8-0.6-1.4-0.6
	h-9.2c-1.1,0-1.8,0.6-2,1.7l-33.5,125.8c-0.1,0.6,0,1.1,0.3,1.5c0.3,0.4,0.8,0.6,1.4,0.6h9.2c1.1,0,1.8-0.6,2-1.7l33.5-125.8
	C1176.7,30.7,1176.6,30.2,1176.3,29.8z"/>
</svg>
