<svg width="700" height="106" xmlns="http://www.w3.org/2000/svg" xml:space="preserve" version="1.1">

 <g>
  <title>Layer 1</title>
  <g stroke="null" id="svg_4">
   <path stroke="null" id="svg_1" fill="#0569FF" d="m80.93223,0l-55.88841,0c-13.83266,0 -25.04381,11.21115 -25.04381,25.04381l0,55.88841c0,13.83266 11.21115,25.04381 25.04381,25.04381l55.88841,0c13.83266,0 25.04381,-11.21115 25.04381,-25.04381l0,-55.88841c0,-13.83266 -11.21115,-25.04381 -25.04381,-25.04381zm7.75298,85.89637c-4.79681,-9.31474 -13.72111,-6.97211 -18.23903,-4.62948c-0.39044,0.22311 -0.78088,0.39044 -1.17131,0.61355c0,0 -0.05578,0.05578 -0.11155,0.05578c-9.42629,5.01992 -22.03186,5.35458 -34.74898,-0.05578c-10.65338,-4.5737 -19.41035,-12.43824 -25.09959,-21.52987c2.9004,2.11952 6.0239,4.01593 9.31474,5.57769c13.44222,6.30279 26.94022,5.85657 36.47807,0c-13.55378,-10.43027 -24.87648,-24.03983 -33.57767,-35.02787c-1.67331,-1.95219 -3.17928,-4.01593 -4.46215,-6.19123c10.43027,9.53784 26.82867,21.47409 32.74102,24.76493c-12.49402,-13.27489 -23.53784,-29.50596 -23.03584,-29.00397c19.68923,19.85656 37.92827,31.12349 37.92827,31.12349c0.66932,0.39044 1.17131,0.66932 1.61753,0.94821c0.33466,-0.94821 0.7251,-1.95219 1.00398,-2.95617c3.17928,-11.49003 -0.39044,-24.65337 -8.42231,-35.52986c18.29481,10.98804 29.11552,31.84859 24.65337,49.47408c-0.11155,0.39044 -0.22311,0.83665 -0.33466,1.22709c9.14741,11.26693 6.63745,23.3705 5.46613,21.13943z" class="st0"/>
   <path stroke="null" id="svg_2" fill="#0569FF" d="m357.92012,30.78883l-5.24302,0c-0.66932,0 -1.00398,0.33466 -1.00398,1.05976l0,50.1434c0,0.66932 0.33466,1.00398 1.00398,1.00398l5.24302,0c0.66932,0 1.05976,-0.33466 1.05976,-1.00398l0,-50.19917c0,-0.66932 -0.33466,-1.00398 -1.05976,-1.00398zm-120.58957,0l-5.24302,0c-0.66932,0 -1.00398,0.33466 -1.00398,1.05976l0,50.1434c0,0.66932 0.33466,1.00398 1.00398,1.00398l5.24302,0c0.66932,0 1.05976,-0.33466 1.05976,-1.00398l0,-50.19917c-0.05578,-0.66932 -0.39044,-1.00398 -1.05976,-1.00398zm100.17524,0l-5.24302,0c-0.66932,0 -1.00398,0.33466 -1.00398,1.05976l0,34.35855c0,3.45817 -0.78088,6.13545 -2.34263,8.14342c-1.56175,2.00797 -3.68127,3.01195 -6.47012,3.01195c-2.67729,0 -4.74103,-0.89243 -6.13545,-2.62151c-1.39442,-1.72908 -2.11952,-4.3506 -2.11952,-7.80876l0,-35.13942c0,-0.66932 -0.33466,-1.05976 -1.00398,-1.05976l-5.2988,0c-0.66932,0 -1.00398,0.33466 -1.00398,1.05976l0,36.75695c0,5.07569 1.22709,8.86852 3.68127,11.37848c2.45418,2.50996 5.74502,3.79283 9.8725,3.79283c4.74103,0 8.1992,-1.78486 10.31872,-5.35458c0.11155,-0.11155 0.27888,-0.22311 0.33466,-0.22311c0.11155,0 0.16733,0.11155 0.16733,0.33466l0,3.51394c0,0.66932 0.33466,1.00398 1.00398,1.00398l5.24302,0c0.66932,0 1.00398,-0.33466 1.00398,-1.00398l0,-50.19917c0,-0.66932 -0.33466,-1.00398 -1.00398,-1.00398zm-40.32667,0l-7.86454,0c-0.27888,0 -0.39044,-0.11155 -0.39044,-0.39044l0,-11.60159c0,-0.66932 -0.33466,-1.05976 -1.05976,-1.05976l-5.13147,0c-0.66932,0 -1.00398,0.33466 -1.00398,1.05976l0,11.54581c0,0.27888 -0.11155,0.39044 -0.39044,0.39044l-4.01593,0c-0.66932,0 -1.00398,0.33466 -1.00398,1.05976l0,3.40239c0,0.66932 0.33466,1.05976 1.00398,1.05976l4.01593,0c0.27888,0 0.39044,0.11155 0.39044,0.39044l0,33.745c0,4.90836 1.05976,8.1992 3.1235,9.98406c2.11952,1.72908 5.18725,2.62151 9.25896,2.62151l2.56574,0c0.66932,0 1.00398,-0.33466 1.00398,-1.00398l0,-4.46215c0,-0.66932 -0.33466,-1.00398 -1.00398,-1.00398l-1.05976,0c-2.28685,0.05578 -3.96016,-0.50199 -5.07569,-1.72908c-1.11554,-1.22709 -1.67331,-3.40239 -1.67331,-6.52589l0,-31.62548c0,-0.27888 0.11155,-0.39044 0.39044,-0.39044l7.86454,0c0.66932,0 1.00398,-0.33466 1.00398,-1.05976l0,-3.40239c0.05578,-0.66932 -0.27888,-1.00398 -0.94821,-1.00398zm-139.05171,26.60556c-1.84064,-1.11554 -4.12749,-2.28685 -6.97211,-3.51394c-2.34263,-1.00398 -4.18326,-1.89641 -5.46613,-2.62151c-1.28287,-0.7251 -2.39841,-1.67331 -3.29083,-2.78884c-0.89243,-1.11554 -1.33864,-2.50996 -1.33864,-4.18326c0,-2.28685 0.7251,-4.18326 2.23107,-5.74502c1.50598,-1.56175 3.45817,-2.34263 5.91235,-2.34263s4.46215,0.78088 6.0239,2.28685c1.56175,1.50598 2.34263,3.45817 2.34263,5.80079l0,0.83665c0,0.55777 0.33466,0.83665 1.00398,0.83665l4.74103,0c0.66932,0 1.00398,-0.33466 1.00398,-1.05976l0,-0.33466c0,-4.3506 -1.39442,-7.80876 -4.12749,-10.43027c-2.73307,-2.62151 -6.47012,-3.90438 -11.15537,-3.90438c-4.62948,0 -8.25498,1.28287 -10.98804,3.79283c-2.73307,2.56574 -4.07171,6.0239 -4.07171,10.43027c0,3.01195 0.61355,5.52191 1.89641,7.4741c1.28287,1.95219 2.78884,3.45817 4.51793,4.51793c1.72908,1.05976 3.96016,2.1753 6.63745,3.23506c2.56574,1.11554 4.46215,2.00797 5.74502,2.67729c1.28287,0.66932 2.39841,1.61753 3.34661,2.84462c0.94821,1.22709 1.4502,2.67729 1.4502,4.46215c0,2.34263 -0.78088,4.23904 -2.28685,5.80079c-1.50598,1.50598 -3.51394,2.28685 -5.96812,2.28685c-2.62151,0 -4.74103,-0.78088 -6.35856,-2.28685c-1.61753,-1.50598 -2.39841,-3.34661 -2.39841,-5.57769l0,-0.7251c0,-0.55777 -0.33466,-0.83665 -1.00398,-0.83665l-4.96414,0c-0.66932,0 -1.00398,0.33466 -1.00398,1.00398l0,0.7251c0,4.07171 1.4502,7.30677 4.29482,9.76095c2.84462,2.45418 6.63745,3.68127 11.37848,3.68127c4.79681,0 8.64541,-1.28287 11.43426,-3.79283c2.84462,-2.56574 4.23904,-5.96812 4.23904,-10.20717c0,-2.95617 -0.66932,-5.41036 -2.06374,-7.41832c-1.28287,-2.06374 -2.9004,-3.56972 -4.74103,-4.68526zm111.16328,-47.35455l-1.4502,0c-5.13147,0 -8.81274,1.33864 -11.04382,4.01593c-2.1753,2.67729 -3.29083,7.02788 -3.29083,12.99601l0,3.29083c0,0.27888 -0.11155,0.39044 -0.39044,0.39044l-4.12749,0c-0.66932,0 -1.00398,0.33466 -1.00398,1.05976l0,3.40239c0,0.66932 0.33466,1.05976 1.00398,1.05976l4.12749,0c0.27888,0 0.39044,0.11155 0.39044,0.39044l0,45.29081c0,0.66932 0.33466,1.00398 1.05976,1.00398l5.13147,0c0.66932,0 1.00398,-0.33466 1.00398,-1.00398l0,-45.29081c0,-0.27888 0.11155,-0.39044 0.39044,-0.39044l7.92031,0c0.66932,0 1.00398,-0.33466 1.00398,-1.05976l0,-3.40239c0,-0.66932 -0.33466,-1.05976 -1.00398,-1.05976l-7.92031,0c-0.27888,0 -0.39044,-0.11155 -0.39044,-0.39044l0,-3.17928c0,-3.73705 0.55777,-6.47012 1.67331,-8.1992c1.11554,-1.72908 2.95617,-2.62151 5.57769,-2.62151l1.22709,0c0.66932,0 1.00398,-0.33466 1.00398,-1.05976l0.11155,-4.23904c0.05578,-0.66932 -0.27888,-1.00398 -1.00398,-1.00398zm-34.52588,0.7251c-1.50598,0 -2.73307,0.50199 -3.73705,1.50598c-0.94821,1.00398 -1.4502,2.23107 -1.4502,3.79283c0,1.56175 0.50199,2.9004 1.4502,3.90438c0.94821,1.00398 2.1753,1.56175 3.73705,1.56175c1.4502,0 2.62151,-0.50199 3.56972,-1.56175s1.39442,-2.34263 1.39442,-3.90438c0,-1.50598 -0.44621,-2.78884 -1.39442,-3.79283c-0.94821,-1.00398 -2.11952,-1.50598 -3.56972,-1.50598zm-13.94422,20.07967l-4.96414,-0.11155c-0.61355,0 -1.00398,0.33466 -1.11554,0.94821l-7.64143,40.27089c-0.05578,0.11155 -0.11155,0.22311 -0.22311,0.22311c-0.05578,0 -0.11155,-0.05578 -0.22311,-0.22311l-7.64143,-40.21512c-0.05578,-0.61355 -0.44621,-0.94821 -1.11554,-0.94821l-4.62948,0c-0.61355,0 -1.00398,0.33466 -1.11554,0.94821l-7.52988,40.15934c-0.05578,0.11155 -0.11155,0.22311 -0.22311,0.22311c-0.05578,0 -0.11155,-0.05578 -0.22311,-0.22311l-7.52988,-40.15934c-0.05578,-0.61355 -0.44621,-0.94821 -1.11554,-0.94821l-5.07569,0c-0.61355,0 -0.94821,0.33466 -0.94821,0.94821l0,0.22311l10.93226,50.1434c0.11155,0.61355 0.50199,0.94821 1.11554,0.94821l5.07569,0c0.66932,0 1.05976,-0.33466 1.11554,-0.94821l7.4741,-37.81671c0.05578,-0.22311 0.11155,-0.33466 0.22311,-0.33466c0.05578,0 0.11155,0.11155 0.22311,0.33466l7.64143,37.76093c0.11155,0.61355 0.50199,0.94821 1.11554,0.94821l5.24302,0c0.66932,0 1.05976,-0.33466 1.11554,-0.94821l10.93226,-50.03184c0.16733,-0.78088 -0.16733,-1.17131 -0.89243,-1.17131zm134.53379,-20.07967c-1.50598,0 -2.73307,0.50199 -3.73705,1.50598c-0.94821,1.00398 -1.4502,2.23107 -1.4502,3.79283c0,1.56175 0.50199,2.9004 1.4502,3.90438c0.94821,1.00398 2.1753,1.56175 3.73705,1.56175c1.4502,0 2.62151,-0.50199 3.56972,-1.56175s1.39442,-2.34263 1.39442,-3.90438c0,-1.50598 -0.44621,-2.78884 -1.39442,-3.79283c-0.94821,-1.00398 -2.11952,-1.50598 -3.56972,-1.50598zm216.97199,19.18724c-4.90836,0 -8.81274,1.4502 -11.71314,4.40637c-2.9004,2.9004 -4.40637,6.749 -4.40637,11.37848l0,22.31074c0,4.74103 1.4502,8.58964 4.40637,11.43426c2.9004,2.9004 6.80478,4.3506 11.71314,4.3506c4.46215,0 8.08764,-1.17131 10.87649,-3.56972c2.78884,-2.39841 4.46215,-5.57769 5.01992,-9.6494c0.05578,-0.33466 0,-0.61355 -0.22311,-0.83665c-0.22311,-0.22311 -0.44621,-0.33466 -0.7251,-0.33466l-5.13147,-0.22311c-0.55777,0 -0.94821,0.33466 -1.11554,0.94821c-0.50199,2.11952 -1.50598,3.8486 -3.06773,5.18725c-1.56175,1.33864 -3.40239,2.00797 -5.63346,2.00797c-2.62151,0 -4.74103,-0.89243 -6.35856,-2.73307c-1.61753,-1.84064 -2.39841,-4.18326 -2.39841,-7.08366l0,-7.52988c0,-0.27888 0.11155,-0.39044 0.39044,-0.39044l23.53784,0c0.66932,0 1.00398,-0.33466 1.00398,-1.00398l0,-12.88445c0,-4.68526 -1.4502,-8.47808 -4.40637,-11.37848c-2.84462,-2.95617 -6.80478,-4.40637 -11.76892,-4.40637zm8.98007,23.20317c0,0.27888 -0.11155,0.39044 -0.39044,0.39044l-16.90039,0c-0.27888,0 -0.39044,-0.11155 -0.39044,-0.39044l0,-6.91633c0,-2.95617 0.78088,-5.35458 2.39841,-7.19522c1.61753,-1.84064 3.73705,-2.73307 6.35856,-2.73307c2.67729,0 4.85259,0.89243 6.52589,2.73307c1.67331,1.84064 2.45418,4.23904 2.45418,7.19522l0,6.91633l-0.05578,0zm40.15934,-21.75298c-1.22709,-0.78088 -2.73307,-1.11554 -4.46215,-1.11554c-4.51793,0 -7.80876,2.62151 -9.81673,7.86454c-0.11155,0.11155 -0.27888,0.22311 -0.33466,0.22311c-0.11155,0 -0.16733,-0.11155 -0.16733,-0.33466l0,-6.24701c0,-0.66932 -0.33466,-1.05976 -1.00398,-1.05976l-5.24302,0c-0.66932,0 -1.00398,0.33466 -1.00398,1.05976l0,50.1434c0,0.66932 0.33466,1.00398 1.00398,1.00398l5.24302,0c0.66932,0 1.00398,-0.33466 1.00398,-1.00398l0,-30.95616c0,-3.51394 0.78088,-6.47012 2.39841,-8.9243c1.56175,-2.45418 3.6255,-3.73705 6.07968,-3.8486c0.33466,-0.05578 0.83665,-0.11155 1.56175,-0.11155c1.00398,0 1.95219,0.16733 2.78884,0.50199c0.83665,0.22311 1.28287,0 1.33864,-0.61355l1.11554,-5.24302c0.16733,-0.61355 -0.05578,-1.05976 -0.50199,-1.33864zm-74.29478,-0.61355l-7.86454,0c-0.27888,0 -0.39044,-0.11155 -0.39044,-0.39044l0,-11.60159c0,-0.66932 -0.33466,-1.05976 -1.05976,-1.05976l-5.13147,0c-0.66932,0 -1.00398,0.33466 -1.00398,1.05976l0,11.54581c0,0.27888 -0.11155,0.39044 -0.39044,0.39044l-4.01593,0c-0.66932,0 -1.00398,0.33466 -1.00398,1.05976l0,3.40239c0,0.66932 0.33466,1.05976 1.00398,1.05976l4.01593,0c0.27888,0 0.39044,0.11155 0.39044,0.39044l0,33.745c0,4.90836 1.05976,8.1992 3.1235,9.98406c2.11952,1.72908 5.18725,2.62151 9.25896,2.62151l2.56574,0c0.66932,0 1.00398,-0.33466 1.00398,-1.00398l0,-4.46215c0,-0.66932 -0.33466,-1.00398 -1.00398,-1.00398l-1.00398,0c-2.28685,0.05578 -3.96016,-0.50199 -5.07569,-1.72908c-1.11554,-1.22709 -1.67331,-3.40239 -1.67331,-6.52589l0,-31.62548c0,-0.27888 0.11155,-0.39044 0.39044,-0.39044l7.86454,0c0.66932,0 1.00398,-0.33466 1.00398,-1.05976l0,-3.40239c0,-0.66932 -0.33466,-1.00398 -1.00398,-1.00398zm-111.55372,0.61355c-1.22709,-0.78088 -2.73307,-1.11554 -4.46215,-1.11554c-4.51793,0 -7.80876,2.62151 -9.81673,7.86454c-0.11155,0.11155 -0.27888,0.22311 -0.33466,0.22311c-0.11155,0 -0.16733,-0.11155 -0.16733,-0.33466l0,-6.24701c0,-0.66932 -0.33466,-1.05976 -1.00398,-1.05976l-5.24302,0c-0.66932,0 -1.00398,0.33466 -1.00398,1.05976l0,50.1434c0,0.66932 0.33466,1.00398 1.00398,1.00398l5.24302,0c0.66932,0 1.00398,-0.33466 1.00398,-1.00398l0,-30.95616c0,-3.51394 0.78088,-6.47012 2.39841,-8.9243c1.56175,-2.45418 3.6255,-3.73705 6.07968,-3.8486c0.33466,-0.05578 0.83665,-0.11155 1.56175,-0.11155c1.00398,0 1.95219,0.16733 2.78884,0.50199c0.83665,0.22311 1.28287,0 1.33864,-0.61355l1.11554,-5.24302c0.16733,-0.61355 0,-1.05976 -0.50199,-1.33864zm80.59756,-0.61355l-5.24302,0c-0.66932,0 -1.00398,0.33466 -1.00398,1.05976l0,34.35855c0,3.45817 -0.78088,6.13545 -2.34263,8.14342c-1.56175,2.00797 -3.68127,3.01195 -6.47012,3.01195c-2.67729,0 -4.74103,-0.89243 -6.13545,-2.62151c-1.39442,-1.72908 -2.11952,-4.3506 -2.11952,-7.80876l0,-35.13942c0,-0.66932 -0.33466,-1.05976 -1.00398,-1.05976l-5.24302,0c-0.66932,0 -1.00398,0.33466 -1.00398,1.05976l0,36.75695c0,5.07569 1.22709,8.86852 3.68127,11.37848c2.45418,2.50996 5.74502,3.79283 9.8725,3.79283c4.74103,0 8.1992,-1.78486 10.31872,-5.35458c0.11155,-0.11155 0.27888,-0.22311 0.33466,-0.22311c0.11155,0 0.16733,0.11155 0.16733,0.33466l0,3.51394c0,0.66932 0.33466,1.00398 1.00398,1.00398l5.24302,0c0.66932,0 1.00398,-0.33466 1.00398,-1.00398l0,-50.19917c0,-0.66932 -0.39044,-1.00398 -1.05976,-1.00398zm-57.78483,-0.83665c-4.90836,0 -8.81274,1.4502 -11.76892,4.40637c-2.95617,2.9004 -4.46215,6.749 -4.46215,11.37848l0,22.31074c0,4.74103 1.4502,8.58964 4.40637,11.43426c2.9004,2.9004 6.86055,4.3506 11.82469,4.3506s8.9243,-1.4502 11.88047,-4.3506c2.95617,-2.9004 4.46215,-6.69322 4.46215,-11.43426l0,-22.31074c0,-4.68526 -1.50598,-8.47808 -4.46215,-11.37848c-3.06773,-2.95617 -6.97211,-4.40637 -11.88047,-4.40637zm8.98007,37.64938c0,2.9004 -0.83665,5.24302 -2.50996,7.08366c-1.67331,1.84064 -3.8486,2.73307 -6.47012,2.73307c-2.62151,0 -4.74103,-0.89243 -6.41434,-2.73307c-1.67331,-1.84064 -2.45418,-4.18326 -2.45418,-7.08366l0,-21.36254c0,-2.95617 0.83665,-5.35458 2.45418,-7.19522c1.67331,-1.84064 3.79283,-2.73307 6.41434,-2.73307c2.62151,0 4.74103,0.89243 6.47012,2.73307c1.67331,1.84064 2.50996,4.23904 2.50996,7.19522l0,21.36254zm229.46601,-4.3506l-10.43027,-6.30279c-0.05578,-0.05578 -0.11155,-0.16733 -0.11155,-0.33466c0,-0.11155 0.05578,-0.22311 0.11155,-0.33466l10.43027,-6.30279c0.33466,-0.22311 0.50199,-0.50199 0.50199,-0.94821c0,-0.22311 -0.05578,-0.39044 -0.11155,-0.50199l-1.33864,-2.45418c-0.22311,-0.39044 -0.50199,-0.61355 -0.83665,-0.61355c-0.11155,0 -0.33466,0.05578 -0.61355,0.22311l-10.20717,6.41434c-0.05578,0.05578 -0.16733,0.05578 -0.33466,0c-0.11155,-0.05578 -0.22311,-0.16733 -0.22311,-0.33466l0,-12.27091c0,-0.66932 -0.33466,-1.00398 -1.00398,-1.00398l-2.67729,0c-0.66932,0 -1.00398,0.33466 -1.00398,1.00398l0.11155,12.27091c0,0.33466 -0.16733,0.44621 -0.50199,0.33466l-10.31872,-6.35856c-0.61355,-0.39044 -1.11554,-0.27888 -1.4502,0.39044l-1.22709,2.45418c-0.11155,0.27888 -0.16733,0.55777 -0.16733,0.83665c0.05578,0.27888 0.16733,0.50199 0.44621,0.61355l10.54183,6.30279c0.11155,0.05578 0.22311,0.16733 0.22311,0.33466c0,0.11155 -0.05578,0.22311 -0.22311,0.33466l-10.54183,6.30279c-0.33466,0.11155 -0.50199,0.39044 -0.50199,0.83665c0,0.11155 0.05578,0.33466 0.22311,0.61355l1.22709,2.28685c0.27888,0.39044 0.55777,0.61355 0.94821,0.61355l0.50199,-0.22311l10.31872,-6.30279c0.33466,-0.22311 0.50199,-0.11155 0.50199,0.33466l-0.11155,12.38246c0,0.66932 0.33466,1.00398 1.00398,1.00398l2.67729,0c0.66932,0 1.00398,-0.33466 1.00398,-1.00398l0,-12.38246c0,-0.11155 0.05578,-0.22311 0.22311,-0.33466c0.11155,-0.05578 0.22311,-0.05578 0.33466,0l10.20717,6.52589c0.27888,0.11155 0.55777,0.16733 0.83665,0.11155c0.27888,-0.05578 0.50199,-0.22311 0.61355,-0.50199l1.33864,-2.45418c0.39044,-0.66932 0.22311,-1.11554 -0.39044,-1.56175z" class="st0"/>
   <path stroke="null" id="svg_3" fill="#074170" d="m398.74878,15.78485l-5.13147,0c-0.61355,0 -1.00398,0.33466 -1.11554,0.94821l-18.68525,70.16729c-0.05578,0.33466 0,0.61355 0.16733,0.83665c0.16733,0.22311 0.44621,0.33466 0.78088,0.33466l5.13147,0c0.61355,0 1.00398,-0.33466 1.11554,-0.94821l18.68525,-70.16729c0.05578,-0.33466 0,-0.61355 -0.16733,-0.83665c-0.16733,-0.22311 -0.44621,-0.33466 -0.78088,-0.33466zm257.35444,0.83665c-0.16733,-0.22311 -0.44621,-0.33466 -0.78088,-0.33466l-5.13147,0c-0.61355,0 -1.00398,0.33466 -1.11554,0.94821l-18.68525,70.16729c-0.05578,0.33466 0,0.61355 0.16733,0.83665c0.16733,0.22311 0.44621,0.33466 0.78088,0.33466l5.13147,0c0.61355,0 1.00398,-0.33466 1.11554,-0.94821l18.68525,-70.16729c0.05578,-0.33466 0,-0.61355 -0.16733,-0.83665z" class="st1"/>
  </g>
 </g>
</svg>